<?xml version="1.0" encoding="utf-8"?>
<!-- Generator: Adobe Illustrator 22.0.1, SVG Export Plug-In . SVG Version: 6.00 Build 0)  -->
<svg version="1.1" id="Layer_1" xmlns="http://www.w3.org/2000/svg" xmlns:xlink="http://www.w3.org/1999/xlink" x="0px" y="0px"
	 viewBox="0 0 376 152.2" style="enable-background:new 0 0 376 152.2;" xml:space="preserve">
<style type="text/css">
	.st0{fill:#808080;}
	.st1{fill:#0055FF;}
</style>
<g>
	<path class="st0" d="M218.6,138.6c0.7,1.2,1,2.6,1,4.3v8c0,0.3-0.1,0.6-0.3,0.8c-0.2,0.2-0.5,0.3-0.8,0.3c-0.3,0-0.6-0.1-0.9-0.3
		c-0.2-0.2-0.3-0.5-0.3-0.8v-8c0-1.3-0.2-2.3-0.7-3.1c-0.5-0.8-1.1-1.4-2-1.8c-0.8-0.4-1.8-0.6-2.8-0.6c-1,0-1.9,0.2-2.7,0.6
		c-0.8,0.4-1.5,0.9-1.9,1.6s-0.7,1.4-0.7,2.3v2.2v6.9c0,0.3-0.1,0.6-0.3,0.8c-0.2,0.2-0.5,0.3-0.8,0.3c-0.4,0-0.7-0.1-0.9-0.3
		c-0.2-0.2-0.3-0.5-0.3-0.8V144v-7.6v-7.2c0-0.4,0.1-0.7,0.3-0.9c0.2-0.2,0.5-0.3,0.9-0.3c0.3,0,0.6,0.1,0.8,0.3
		c0.2,0.2,0.3,0.5,0.3,0.9v7.2v1.1c0.6-0.6,1.2-1.1,2-1.6c1.1-0.6,2.3-0.9,3.6-0.9c1.5,0,2.8,0.3,3.9,0.9
		C217.1,136.6,218,137.4,218.6,138.6z M249.1,139.1c0.6,1.3,1,2.7,1,4.3c0,0.3-0.1,0.6-0.3,0.8c-0.2,0.2-0.5,0.3-0.8,0.3h-12.4
		c0.1,0.9,0.3,1.8,0.8,2.6c0.5,1,1.3,1.7,2.2,2.3c0.9,0.6,2,0.8,3.3,0.8c0.7,0,1.5-0.1,2.2-0.4s1.3-0.6,1.8-1
		c0.2-0.2,0.5-0.3,0.8-0.3c0.3,0,0.5,0.1,0.7,0.2c0.3,0.2,0.4,0.5,0.4,0.8c0,0.3-0.1,0.5-0.4,0.7c-0.7,0.6-1.5,1.1-2.6,1.4
		s-2.1,0.6-3,0.6c-1.7,0-3.1-0.4-4.4-1.1c-1.3-0.7-2.3-1.7-3-3c-0.7-1.3-1.1-2.8-1.1-4.4c0-1.7,0.3-3.2,1-4.4c0.7-1.3,1.6-2.3,2.8-3
		c1.2-0.7,2.6-1.1,4.2-1.1c1.6,0,2.9,0.4,4.1,1.1C247.6,136.8,248.5,137.8,249.1,139.1z M237.2,140.3c-0.3,0.6-0.5,1.4-0.6,2.1h11.3
		c-0.1-0.8-0.3-1.6-0.6-2.2c-0.5-0.9-1.1-1.7-1.9-2.2c-0.8-0.5-1.8-0.8-3-0.8c-1.2,0-2.2,0.3-3.1,0.8S237.7,139.3,237.2,140.3z
		 M278.8,139.3c0.7,1.3,1.1,2.8,1.2,4.4v7.2c0,0.3-0.1,0.6-0.3,0.8c-0.2,0.2-0.5,0.3-0.9,0.3c-0.3,0-0.6-0.1-0.9-0.3
		c-0.2-0.2-0.3-0.5-0.3-0.8V149c-0.6,0.9-1.4,1.6-2.4,2.2c-1.2,0.7-2.5,1-4,1c-1.6,0-3-0.4-4.2-1.1c-1.3-0.7-2.2-1.8-3-3.1
		c-0.7-1.3-1.1-2.7-1.1-4.4c0-1.6,0.4-3.1,1.1-4.4c0.7-1.3,1.8-2.3,3.1-3.1c1.3-0.7,2.7-1.1,4.4-1.1c1.6,0,3.1,0.4,4.4,1.1
		C277,136.9,278,138,278.8,139.3z M276.8,146.9c0.5-1,0.8-2.1,0.8-3.3c0-1.2-0.3-2.3-0.8-3.3c-0.5-1-1.3-1.7-2.2-2.3
		c-0.9-0.6-2-0.8-3.2-0.8c-1.2,0-2.2,0.3-3.2,0.8c-0.9,0.6-1.7,1.3-2.2,2.3c-0.6,1-0.8,2.1-0.8,3.3c0,1.2,0.3,2.3,0.8,3.3
		c0.6,1,1.3,1.7,2.2,2.3c0.9,0.6,2,0.8,3.2,0.8c1.2,0,2.3-0.3,3.2-0.8C275.5,148.7,276.2,147.9,276.8,146.9z M299.2,149.7h-0.8
		c-0.6,0-1-0.3-1.4-0.8c-0.4-0.6-0.5-1.3-0.5-2.2v-17.5c0-0.3-0.1-0.6-0.3-0.8c-0.2-0.2-0.5-0.3-0.8-0.3c-0.3,0-0.6,0.1-0.8,0.3
		c-0.2,0.2-0.3,0.5-0.3,0.8v17.5c0,1,0.2,2,0.5,2.8c0.4,0.8,0.9,1.4,1.5,1.9c0.6,0.5,1.4,0.7,2.2,0.7h0.4c0.4,0,0.7-0.1,1-0.3
		c0.3-0.2,0.4-0.5,0.4-0.8s-0.1-0.6-0.3-0.8C299.8,149.8,299.5,149.7,299.2,149.7z M321.2,149.7h-0.8c-1,0-1.8-0.3-2.4-1
		c-0.6-0.7-0.9-1.5-0.9-2.6v-8.2h3.5c0.3,0,0.6-0.1,0.8-0.3c0.2-0.2,0.3-0.4,0.3-0.7c0-0.3-0.1-0.6-0.3-0.8
		c-0.2-0.2-0.5-0.3-0.8-0.3h-3.5v-4.8c0-0.3-0.1-0.6-0.3-0.9c-0.2-0.2-0.5-0.3-0.9-0.3s-0.6,0.1-0.8,0.3c-0.2,0.2-0.3,0.5-0.3,0.9
		v4.8h-2c-0.3,0-0.6,0.1-0.8,0.3c-0.2,0.2-0.3,0.4-0.3,0.8c0,0.3,0.1,0.5,0.3,0.7s0.5,0.3,0.8,0.3h2v8.2c0,1.1,0.2,2.2,0.7,3.1
		s1.2,1.6,2,2.1c0.9,0.5,1.8,0.8,2.9,0.8h0.6c0.4,0,0.7-0.1,0.9-0.3c0.2-0.2,0.4-0.5,0.4-0.8s-0.1-0.6-0.3-0.9
		S321.5,149.7,321.2,149.7z M351,138.6c-0.7-1.2-1.6-2.1-2.7-2.7c-1.1-0.6-2.5-0.9-3.9-0.9c-1.3,0-2.5,0.3-3.6,0.9
		c-0.8,0.4-1.4,0.9-2,1.6v-1.1v-7.2c0-0.4-0.1-0.7-0.3-0.9c-0.2-0.2-0.5-0.3-0.8-0.3c-0.4,0-0.7,0.1-0.9,0.3
		c-0.2,0.2-0.3,0.5-0.3,0.9v7.2v7.6v6.9c0,0.3,0.1,0.6,0.3,0.8c0.2,0.2,0.5,0.3,0.9,0.3c0.3,0,0.6-0.1,0.8-0.3
		c0.2-0.2,0.3-0.5,0.3-0.8V144v-2.2c0-0.9,0.2-1.6,0.7-2.3s1.1-1.2,1.9-1.6c0.8-0.4,1.7-0.6,2.7-0.6c1,0,2,0.2,2.8,0.6
		c0.8,0.4,1.5,1,2,1.8c0.5,0.8,0.7,1.9,0.7,3.1v8c0,0.3,0.1,0.6,0.3,0.8c0.2,0.2,0.5,0.3,0.9,0.3c0.3,0,0.6-0.1,0.8-0.3
		c0.2-0.2,0.3-0.5,0.3-0.8v-8C352,141.2,351.7,139.8,351,138.6z"/>
	<path class="st1" d="M148,110C148,110,148,110,148,110c0,3.3-2.7,6-6,6c-3.3,0-6-2.7-6-6c0,0,0,0,0,0V91.7
		c2.6,6.6,6.7,12.3,12,16.9V110z M204,18c0,3.3,2.7,6,6,6c3.3,0,6-2.7,6-6c0-3.3-2.7-6-6-6C206.7,12,204,14.7,204,18z M216,110
		L216,110C216,110,216,110,216,110c0,3.3-2.7,6-6,6c-3.3,0-6-2.7-6-6c0,0,0,0,0,0v-5.4c-7.2,7.1-17.1,11.4-28,11.4h0v0
		c-22.1,0-40-17.9-40-40v0l0,0h0c0-15.5-12.5-28-28-28h0h0c-15.5,0-28,12.5-28,28h0v0h0l0,0v34c0,0,0,0,0,0c0,3.3-2.7,6-6,6
		c-3.3,0-6-2.7-6-6c0,0,0,0,0,0V76l0,0h0v0c0-15.5-12.5-28-28-28v0h0c-15.5,0-28,12.5-28,28h0l0,0v34h0c0,0,0,0,0,0c0,3.3-2.7,6-6,6
		c-3.3,0-6-2.7-6-6c0,0,0,0,0,0l0-68c0,0,0,0,0,0c0-3.3,2.7-6,6-6c3.3,0,6,2.7,6,6c0,0,0,0,0,0v5.4C19.2,40.4,29.1,36,40,36h0l0,0
		c14.4,0,26.9,7.6,34,18.9C81.1,43.6,93.6,36,108,36h0h0c22.1,0,40,17.9,40,40h0l0,0v0c0,15.5,12.5,28,28,28l0,0
		c12,0,22.2-7.5,26.2-18.1c2.1,9,7.1,16.8,13.8,22.6V110z M340,76L340,76c0-15.5-12.5-28-28-28v0h0c-10.9,0-20.4,6.3-25,15.4V44.8
		c6.8-5.5,15.5-8.8,25-8.8h0l0,0c22.1,0,40,17.9,40,40v0h0l0,0h0c0,0,0,0,0,0l0,0v34h0c0,0,0,0,0,0c0,3.3-2.7,6-6,6
		c-3.3,0-6-2.7-6-6c0,0,0,0,0,0v-5.4c-7.2,7.1-17.1,11.4-28,11.4h0v0c-22.1,0-40-17.9-40-40v0v0c0-15.5-12.5-28-28-28v0h0
		c-10.9,0-20.4,6.3-25,15.4V44.8c6.8-5.5,15.5-8.8,25-8.8h0l0,0c10.9,0,20.8,4.4,28,11.4V6h0c0,0,0,0,0,0c0-3.3,2.7-6,6-6
		c3.3,0,6,2.7,6,6c0,0,0,0,0,0v70c0,0,0,0,0,0v0v0c0,15.5,12.5,28,28,28v0h0C327.5,104,340,91.5,340,76L340,76z M276.2,99.8
		c-7.3,9.9-19,16.2-32.2,16.2h0v0c-22.1,0-40-17.9-40-40h0v0c0-15.5-12.5-28-28-28v0h0c-12,0-22.2,7.5-26.2,18
		c-1.2-5-3.2-9.6-6-13.8c7.3-9.9,19-16.3,32.2-16.3h0l0,0c10.9,0,20.8,4.4,28,11.4V42c0,0,0,0,0,0c0-3.3,2.7-6,6-6c3.3,0,6,2.7,6,6
		c0,0,0,0,0,0v34c0,0,0,0,0,0v0v0c0,15.5,12.5,28,28,28l0,0c12,0,22.2-7.5,26.2-18.1C271.4,90.9,273.4,95.6,276.2,99.8z M364,110
		c0,3.3,2.7,6,6,6c3.3,0,6-2.7,6-6c0-3.3-2.7-6-6-6C366.7,104,364,106.7,364,110z"/>
</g>
</svg>
